<svg width="336" height="291" viewBox="0 0 336 291" fill="none" xmlns="http://www.w3.org/2000/svg">
<circle cx="3" cy="2.5" r="2.5" fill="#2B357B"/>
<circle cx="25" cy="2.5" r="2.5" fill="#2B357B"/>
<circle cx="47" cy="2.5" r="2.5" fill="#2B357B"/>
<circle cx="69" cy="2.5" r="2.5" fill="#2B357B"/>
<circle cx="91" cy="2.5" r="2.5" fill="#2B357B"/>
<circle cx="113" cy="2.5" r="2.5" fill="#2B357B"/>
<circle cx="135" cy="2.5" r="2.5" fill="#2B357B"/>
<circle cx="157" cy="2.5" r="2.5" fill="#2B357B"/>
<circle cx="179" cy="2.5" r="2.5" fill="#2B357B"/>
<circle cx="201" cy="2.5" r="2.5" fill="#2B357B"/>
<circle cx="223" cy="2.5" r="2.5" fill="#2B357B"/>
<circle cx="245" cy="2.5" r="2.5" fill="#2B357B"/>
<circle cx="267" cy="2.5" r="2.5" fill="#2B357B"/>
<circle cx="289" cy="2.5" r="2.5" fill="#2B357B"/>
<circle cx="311" cy="2.5" r="2.5" fill="#2B357B"/>
<circle cx="333" cy="2.5" r="2.5" fill="#2B357B"/>
<circle cx="3" cy="24.5" r="2.5" fill="#2B357B"/>
<circle cx="25" cy="24.5" r="2.5" fill="#2B357B"/>
<circle cx="47" cy="24.5" r="2.5" fill="#2B357B"/>
<circle cx="69" cy="24.5" r="2.5" fill="#2B357B"/>
<circle cx="91" cy="24.5" r="2.5" fill="#2B357B"/>
<circle cx="113" cy="24.5" r="2.5" fill="#2B357B"/>
<circle cx="135" cy="24.5" r="2.5" fill="#2B357B"/>
<circle cx="157" cy="24.5" r="2.5" fill="#2B357B"/>
<circle cx="179" cy="24.5" r="2.5" fill="#2B357B"/>
<circle cx="201" cy="24.5" r="2.5" fill="#2B357B"/>
<circle cx="223" cy="24.5" r="2.5" fill="#2B357B"/>
<circle cx="245" cy="24.5" r="2.5" fill="#2B357B"/>
<circle cx="267" cy="24.5" r="2.5" fill="#2B357B"/>
<circle cx="289" cy="24.5" r="2.5" fill="#2B357B"/>
<circle cx="311" cy="24.5" r="2.5" fill="#2B357B"/>
<circle cx="333" cy="24.5" r="2.5" fill="#2B357B"/>
<circle cx="3" cy="46.5" r="2.5" fill="#2B357B"/>
<circle cx="25" cy="46.5" r="2.5" fill="#2B357B"/>
<circle cx="47" cy="46.5" r="2.5" fill="#2B357B"/>
<circle cx="69" cy="46.5" r="2.5" fill="#2B357B"/>
<circle cx="91" cy="46.5" r="2.5" fill="#2B357B"/>
<circle cx="113" cy="46.5" r="2.5" fill="#2B357B"/>
<circle cx="135" cy="46.5" r="2.5" fill="#2B357B"/>
<circle cx="157" cy="46.5" r="2.5" fill="#2B357B"/>
<circle cx="179" cy="46.5" r="2.5" fill="#2B357B"/>
<circle cx="201" cy="46.5" r="2.5" fill="#2B357B"/>
<circle cx="223" cy="46.5" r="2.5" fill="#2B357B"/>
<circle cx="245" cy="46.5" r="2.5" fill="#2B357B"/>
<circle cx="267" cy="46.5" r="2.5" fill="#2B357B"/>
<circle cx="289" cy="46.5" r="2.5" fill="#2B357B"/>
<circle cx="311" cy="46.5" r="2.5" fill="#2B357B"/>
<circle cx="333" cy="46.5" r="2.5" fill="#2B357B"/>
<circle cx="3" cy="68.5" r="2.5" fill="#2B357B"/>
<circle cx="25" cy="68.5" r="2.5" fill="#2B357B"/>
<circle cx="47" cy="68.5" r="2.5" fill="#2B357B"/>
<circle cx="69" cy="68.5" r="2.5" fill="#2B357B"/>
<circle cx="91" cy="68.5" r="2.5" fill="#2B357B"/>
<circle cx="113" cy="68.5" r="2.5" fill="#2B357B"/>
<circle cx="135" cy="68.5" r="2.5" fill="#2B357B"/>
<circle cx="157" cy="68.5" r="2.5" fill="#2B357B"/>
<circle cx="179" cy="68.5" r="2.5" fill="#2B357B"/>
<circle cx="201" cy="68.5" r="2.5" fill="#2B357B"/>
<circle cx="223" cy="68.5" r="2.5" fill="#2B357B"/>
<circle cx="245" cy="68.5" r="2.5" fill="#2B357B"/>
<circle cx="267" cy="68.5" r="2.5" fill="#2B357B"/>
<circle cx="289" cy="68.5" r="2.5" fill="#2B357B"/>
<circle cx="311" cy="68.5" r="2.5" fill="#2B357B"/>
<circle cx="333" cy="68.5" r="2.5" fill="#2B357B"/>
<circle cx="3" cy="90.5" r="2.5" fill="#2B357B"/>
<circle cx="25" cy="90.5" r="2.5" fill="#2B357B"/>
<circle cx="47" cy="90.5" r="2.5" fill="#2B357B"/>
<circle cx="69" cy="90.5" r="2.5" fill="#2B357B"/>
<circle cx="91" cy="90.5" r="2.5" fill="#2B357B"/>
<circle cx="113" cy="90.5" r="2.5" fill="#2B357B"/>
<circle cx="135" cy="90.5" r="2.5" fill="#2B357B"/>
<circle cx="157" cy="90.5" r="2.5" fill="#2B357B"/>
<circle cx="179" cy="90.5" r="2.5" fill="#2B357B"/>
<circle cx="201" cy="90.5" r="2.5" fill="#2B357B"/>
<circle cx="223" cy="90.5" r="2.5" fill="#2B357B"/>
<circle cx="245" cy="90.5" r="2.5" fill="#2B357B"/>
<circle cx="267" cy="90.5" r="2.5" fill="#2B357B"/>
<circle cx="289" cy="90.5" r="2.5" fill="#2B357B"/>
<circle cx="311" cy="90.5" r="2.5" fill="#2B357B"/>
<circle cx="333" cy="90.5" r="2.5" fill="#2B357B"/>
<circle cx="3" cy="112.5" r="2.5" fill="#2B357B"/>
<circle cx="25" cy="112.5" r="2.5" fill="#2B357B"/>
<circle cx="47" cy="112.5" r="2.5" fill="#2B357B"/>
<circle cx="69" cy="112.5" r="2.5" fill="#2B357B"/>
<circle cx="91" cy="112.5" r="2.5" fill="#2B357B"/>
<circle cx="113" cy="112.5" r="2.5" fill="#2B357B"/>
<circle cx="135" cy="112.5" r="2.5" fill="#2B357B"/>
<circle cx="157" cy="112.5" r="2.5" fill="#2B357B"/>
<circle cx="179" cy="112.5" r="2.5" fill="#2B357B"/>
<circle cx="201" cy="112.5" r="2.5" fill="#2B357B"/>
<circle cx="223" cy="112.5" r="2.5" fill="#2B357B"/>
<circle cx="245" cy="112.5" r="2.5" fill="#2B357B"/>
<circle cx="267" cy="112.5" r="2.5" fill="#2B357B"/>
<circle cx="289" cy="112.5" r="2.5" fill="#2B357B"/>
<circle cx="311" cy="112.5" r="2.5" fill="#2B357B"/>
<circle cx="333" cy="112.5" r="2.5" fill="#2B357B"/>
<circle cx="3" cy="134.5" r="2.5" fill="#2B357B"/>
<circle cx="25" cy="134.5" r="2.5" fill="#2B357B"/>
<circle cx="47" cy="134.5" r="2.5" fill="#2B357B"/>
<circle cx="69" cy="134.5" r="2.5" fill="#2B357B"/>
<circle cx="91" cy="134.5" r="2.5" fill="#2B357B"/>
<circle cx="113" cy="134.5" r="2.5" fill="#2B357B"/>
<circle cx="135" cy="134.5" r="2.5" fill="#2B357B"/>
<circle cx="157" cy="134.5" r="2.5" fill="#2B357B"/>
<circle cx="179" cy="134.5" r="2.5" fill="#2B357B"/>
<circle cx="201" cy="134.5" r="2.5" fill="#2B357B"/>
<circle cx="223" cy="134.5" r="2.5" fill="#2B357B"/>
<circle cx="245" cy="134.5" r="2.5" fill="#2B357B"/>
<circle cx="267" cy="134.5" r="2.5" fill="#2B357B"/>
<circle cx="289" cy="134.5" r="2.5" fill="#2B357B"/>
<circle cx="311" cy="134.5" r="2.5" fill="#2B357B"/>
<circle cx="333" cy="134.5" r="2.5" fill="#2B357B"/>
<circle cx="3" cy="156.5" r="2.5" fill="#2B357B"/>
<circle cx="25" cy="156.5" r="2.5" fill="#2B357B"/>
<circle cx="47" cy="156.5" r="2.5" fill="#2B357B"/>
<circle cx="69" cy="156.5" r="2.5" fill="#2B357B"/>
<circle cx="91" cy="156.5" r="2.5" fill="#2B357B"/>
<circle cx="113" cy="156.5" r="2.5" fill="#2B357B"/>
<circle cx="135" cy="156.5" r="2.5" fill="#2B357B"/>
<circle cx="157" cy="156.5" r="2.5" fill="#2B357B"/>
<circle cx="179" cy="156.5" r="2.5" fill="#2B357B"/>
<circle cx="201" cy="156.5" r="2.5" fill="#2B357B"/>
<circle cx="223" cy="156.5" r="2.5" fill="#2B357B"/>
<circle cx="245" cy="156.5" r="2.5" fill="#2B357B"/>
<circle cx="267" cy="156.5" r="2.5" fill="#2B357B"/>
<circle cx="289" cy="156.5" r="2.5" fill="#2B357B"/>
<circle cx="311" cy="156.5" r="2.5" fill="#2B357B"/>
<circle cx="333" cy="156.5" r="2.5" fill="#2B357B"/>
<circle cx="3" cy="178.5" r="2.5" fill="#2B357B"/>
<circle cx="25" cy="178.5" r="2.5" fill="#2B357B"/>
<circle cx="47" cy="178.5" r="2.5" fill="#2B357B"/>
<circle cx="69" cy="178.5" r="2.5" fill="#2B357B"/>
<circle cx="91" cy="178.5" r="2.5" fill="#2B357B"/>
<circle cx="113" cy="178.5" r="2.5" fill="#2B357B"/>
<circle cx="135" cy="178.5" r="2.5" fill="#2B357B"/>
<circle cx="157" cy="178.5" r="2.5" fill="#2B357B"/>
<circle cx="179" cy="178.5" r="2.5" fill="#2B357B"/>
<circle cx="201" cy="178.5" r="2.5" fill="#2B357B"/>
<circle cx="223" cy="178.5" r="2.5" fill="#2B357B"/>
<circle cx="245" cy="178.5" r="2.5" fill="#2B357B"/>
<circle cx="267" cy="178.5" r="2.5" fill="#2B357B"/>
<circle cx="289" cy="178.5" r="2.5" fill="#2B357B"/>
<circle cx="311" cy="178.5" r="2.5" fill="#2B357B"/>
<circle cx="333" cy="178.5" r="2.5" fill="#2B357B"/>
<circle cx="3" cy="200.5" r="2.5" fill="#2B357B"/>
<circle cx="25" cy="200.5" r="2.5" fill="#2B357B"/>
<circle cx="47" cy="200.5" r="2.5" fill="#2B357B"/>
<circle cx="69" cy="200.5" r="2.5" fill="#2B357B"/>
<circle cx="91" cy="200.5" r="2.5" fill="#2B357B"/>
<circle cx="113" cy="200.5" r="2.5" fill="#2B357B"/>
<circle cx="135" cy="200.5" r="2.5" fill="#2B357B"/>
<circle cx="157" cy="200.5" r="2.5" fill="#2B357B"/>
<circle cx="179" cy="200.5" r="2.5" fill="#2B357B"/>
<circle cx="201" cy="200.5" r="2.5" fill="#2B357B"/>
<circle cx="223" cy="200.5" r="2.5" fill="#2B357B"/>
<circle cx="245" cy="200.5" r="2.5" fill="#2B357B"/>
<circle cx="267" cy="200.5" r="2.5" fill="#2B357B"/>
<circle cx="289" cy="200.5" r="2.5" fill="#2B357B"/>
<circle cx="311" cy="200.5" r="2.5" fill="#2B357B"/>
<circle cx="333" cy="200.5" r="2.5" fill="#2B357B"/>
<circle cx="3" cy="222.5" r="2.5" fill="#2B357B"/>
<circle cx="25" cy="222.5" r="2.5" fill="#2B357B"/>
<circle cx="47" cy="222.5" r="2.5" fill="#2B357B"/>
<circle cx="69" cy="222.5" r="2.5" fill="#2B357B"/>
<circle cx="91" cy="222.5" r="2.5" fill="#2B357B"/>
<circle cx="113" cy="222.5" r="2.5" fill="#2B357B"/>
<circle cx="135" cy="222.5" r="2.5" fill="#2B357B"/>
<circle cx="157" cy="222.5" r="2.5" fill="#2B357B"/>
<circle cx="179" cy="222.5" r="2.5" fill="#2B357B"/>
<circle cx="201" cy="222.5" r="2.5" fill="#2B357B"/>
<circle cx="223" cy="222.5" r="2.5" fill="#2B357B"/>
<circle cx="245" cy="222.5" r="2.5" fill="#2B357B"/>
<circle cx="267" cy="222.5" r="2.5" fill="#2B357B"/>
<circle cx="289" cy="222.5" r="2.5" fill="#2B357B"/>
<circle cx="311" cy="222.5" r="2.5" fill="#2B357B"/>
<circle cx="333" cy="222.5" r="2.5" fill="#2B357B"/>
<circle cx="3" cy="244.5" r="2.5" fill="#2B357B"/>
<circle cx="25" cy="244.5" r="2.5" fill="#2B357B"/>
<circle cx="47" cy="244.5" r="2.5" fill="#2B357B"/>
<circle cx="69" cy="244.5" r="2.5" fill="#2B357B"/>
<circle cx="91" cy="244.5" r="2.5" fill="#2B357B"/>
<circle cx="113" cy="244.5" r="2.5" fill="#2B357B"/>
<circle cx="135" cy="244.5" r="2.5" fill="#2B357B"/>
<circle cx="157" cy="244.5" r="2.5" fill="#2B357B"/>
<circle cx="179" cy="244.5" r="2.5" fill="#2B357B"/>
<circle cx="201" cy="244.5" r="2.5" fill="#2B357B"/>
<circle cx="223" cy="244.5" r="2.5" fill="#2B357B"/>
<circle cx="245" cy="244.5" r="2.5" fill="#2B357B"/>
<circle cx="267" cy="244.5" r="2.5" fill="#2B357B"/>
<circle cx="289" cy="244.5" r="2.5" fill="#2B357B"/>
<circle cx="311" cy="244.5" r="2.5" fill="#2B357B"/>
<circle cx="333" cy="244.5" r="2.5" fill="#2B357B"/>
<circle cx="3" cy="266.5" r="2.5" fill="#2B357B"/>
<circle cx="25" cy="266.5" r="2.5" fill="#2B357B"/>
<circle cx="47" cy="266.5" r="2.5" fill="#2B357B"/>
<circle cx="69" cy="266.5" r="2.5" fill="#2B357B"/>
<circle cx="91" cy="266.5" r="2.5" fill="#2B357B"/>
<circle cx="113" cy="266.5" r="2.5" fill="#2B357B"/>
<circle cx="135" cy="266.5" r="2.5" fill="#2B357B"/>
<circle cx="157" cy="266.5" r="2.5" fill="#2B357B"/>
<circle cx="179" cy="266.5" r="2.5" fill="#2B357B"/>
<circle cx="201" cy="266.5" r="2.5" fill="#2B357B"/>
<circle cx="223" cy="266.5" r="2.5" fill="#2B357B"/>
<circle cx="245" cy="266.5" r="2.5" fill="#2B357B"/>
<circle cx="267" cy="266.5" r="2.5" fill="#2B357B"/>
<circle cx="289" cy="266.5" r="2.5" fill="#2B357B"/>
<circle cx="311" cy="266.5" r="2.5" fill="#2B357B"/>
<circle cx="333" cy="266.5" r="2.5" fill="#2B357B"/>
<circle cx="3" cy="288.5" r="2.5" fill="#2B357B"/>
<circle cx="25" cy="288.5" r="2.5" fill="#2B357B"/>
<circle cx="47" cy="288.5" r="2.5" fill="#2B357B"/>
<circle cx="69" cy="288.5" r="2.5" fill="#2B357B"/>
<circle cx="91" cy="288.5" r="2.5" fill="#2B357B"/>
<circle cx="113" cy="288.5" r="2.5" fill="#2B357B"/>
<circle cx="135" cy="288.5" r="2.5" fill="#2B357B"/>
<circle cx="157" cy="288.5" r="2.5" fill="#2B357B"/>
</svg>
