<svg width="230" height="141" viewBox="0 0 230 141" fill="none" xmlns="http://www.w3.org/2000/svg">
<path d="M70.8515 74.0021C70.0565 80.1071 68.4964 86.1221 66.0964 91.8221C58.4914 110.092 45.4265 127.507 26.6465 133.822C23.3915 134.917 7.62647 137.182 6.36647 123.307C5.57147 114.247 10.9715 107.437 14.2265 103.732C29.4365 86.2121 49.0114 78.9521 70.8364 74.0021H70.8515Z" fill="white"/>
<path d="M86.1363 64.5821C65.4063 66.7721 44.0913 70.4321 26.5863 82.5221C18.5763 88.0421 10.5963 95.0171 5.52629 103.417C0.456295 111.817 -2.66368 123.967 3.11132 132.802C12.6963 147.457 33.4863 139.567 44.3163 131.497C62.2413 118.132 74.6913 95.5721 77.2113 73.4471C80.1963 47.3321 68.6463 16.9421 46.6863 1.62709C40.0713 -2.99291 33.8013 7.85209 40.3713 12.4271C55.2513 22.8221 64.4013 44.1371 65.1363 61.8071C65.8713 79.4771 58.3863 99.0521 46.1313 112.882C40.1913 119.587 25.7163 133.192 15.3963 127.477C8.87132 123.862 14.2863 112.672 17.2113 108.337C21.4713 102.022 27.9513 96.5621 34.2663 92.4071C49.6563 82.2671 68.1063 78.9971 86.1213 77.1071C94.0563 76.2671 94.1313 63.7421 86.1213 64.5971L86.1363 64.5821Z" fill="#C75DA3"/>
<path d="M103.116 77.0921C111.171 77.0921 111.186 64.5821 103.116 64.5821C95.0465 64.5821 95.0465 77.0921 103.116 77.0921Z" fill="#C75DA3"/>
<path d="M90.3531 111.81V108.57L91.1631 107.76H94.0521V111L93.2421 111.81H90.3531ZM104.431 112.512L97.2225 110.298C96.4125 111.405 95.2245 111.81 93.2535 111.81V108.57L94.0635 107.76C95.4135 107.76 95.8725 107.409 96.2775 106.41L97.0335 104.547C97.9515 102.252 99.3285 100.389 101.893 100.389C105.241 100.389 106.996 103.224 106.996 107.922V108.705L104.431 112.512ZM98.7615 106.383L98.7075 106.545L104.134 108.192V107.922C104.134 105.762 103 104.466 101.218 104.466C100.057 104.466 99.1935 105.06 98.7615 106.383ZM109.121 112.62L108.203 108.678L112.577 107.652L110.471 95.745L113.657 95.178L115.736 106.842C118.328 106.032 119.03 105.114 119.03 102.927V91.83H122.27V105.87C122.27 107.166 122.864 107.76 124.16 107.76H125.24V111L124.43 111.81C120.947 111.783 119.381 110.055 119.381 106.302V106.032H119.219C118.733 109.002 117.545 110.649 115.439 111.135L109.121 112.62ZM124.419 111.81V108.57L125.229 107.76H127.092C131.142 107.76 133.275 107.652 136.38 106.14L137.379 105.654V105.519L133.059 104.601L128.982 103.602V105.627H125.877V103.548C125.877 101.01 126.984 99.849 129.225 99.849C129.792 99.849 130.332 99.957 132.033 100.389L137.244 101.739C138.675 102.117 140.43 102.36 142.023 102.36H142.563V106.41H140.457L137.919 108.138C133.194 111.351 130.548 111.81 127.092 111.81H124.419ZM144.186 111.81V107.76L148.83 103.575L142.566 97.689L144.915 95.151L151.395 101.253C152.016 100.578 152.259 99.849 152.259 98.526V91.83H155.499V98.526C155.499 100.416 154.905 101.604 153.285 103.035L154.23 103.899C155.769 105.357 156.309 106.41 156.309 108.03C156.309 110.19 154.716 111.81 152.583 111.81H144.186ZM153.339 107.76L150.639 105.249L147.777 107.652L147.804 107.76H153.339ZM143.835 94.044V91.857H144.969L144.996 91.722C144.645 91.344 144.456 90.804 144.456 90.291C144.456 88.806 145.698 87.672 147.399 87.672C148.452 87.672 149.478 88.131 150.18 88.887L148.884 90.696C148.452 90.264 147.939 90.048 147.399 90.048C146.778 90.048 146.373 90.372 146.373 90.777C146.373 91.398 146.967 91.668 148.236 91.668H150.234V94.044H143.835ZM158.886 111.81V91.83H162.126V111.81H158.886ZM169.323 111.81V108.57L170.133 107.76H173.022V111L172.212 111.81H169.323ZM172.223 111.81V108.57L173.033 107.76H176.543L176.597 107.625L173.978 104.412V100.227C175.76 99.417 177.866 98.931 179.756 98.931C183.914 98.931 185.804 100.362 185.804 103.521C185.804 105.492 185.129 106.302 183.428 107.679L183.455 107.76H186.749V111L185.939 111.81H185.669C183.752 111.81 181.511 111.378 179.864 110.352C178.217 111.378 176.327 111.81 174.41 111.81H172.223ZM176.57 103.332V103.494L180.08 107.625L181.727 106.275C182.753 105.438 183.104 105.195 183.104 104.412C183.104 103.359 182.24 102.981 179.756 102.981C178.649 102.981 177.407 103.143 176.57 103.332ZM185.934 111.81V108.57L186.744 107.76H189.093C189.066 107.544 189.066 107.328 189.066 107.112C189.066 104.952 190.362 103.089 192.846 101.658L194.574 100.659H198.138L200.271 106.383C200.676 107.49 201.162 107.76 202.35 107.76H203.16V111L202.35 111.81C199.974 111.81 198.759 111.081 197.841 109.515L197.679 109.542V111.81H194.25C191.631 111.81 190.065 110.622 189.417 109.002H189.174C188.661 110.919 187.608 111.81 185.934 111.81ZM191.523 106.734C191.523 107.517 192.225 107.76 193.089 107.76H197.058L195.708 104.196L193.251 105.168C192.117 105.627 191.523 106.086 191.523 106.734ZM202.361 111.81V108.57L203.171 107.76H205.034C209.084 107.76 211.217 107.652 214.322 106.14L215.321 105.654V105.519L211.001 104.601L206.924 103.602V105.627H203.819V103.548C203.819 101.01 204.926 99.849 207.167 99.849C207.734 99.849 208.274 99.957 209.975 100.389L215.186 101.739C216.617 102.117 218.372 102.36 219.965 102.36H220.505V106.41H218.615C218.642 107.409 219.155 107.76 220.505 107.76H221.315V111L220.505 111.81C217.832 111.783 216.32 110.595 215.969 108.057L215.861 108.138C211.136 111.351 208.49 111.81 205.034 111.81H202.361ZM211.676 117.642C210.758 117.642 210.083 117.102 210.083 115.833C210.083 114.564 210.758 114.024 211.676 114.024H212.216C213.134 114.024 213.809 114.564 213.809 115.833C213.809 117.102 213.134 117.642 212.216 117.642H211.676ZM220.502 111.81V108.57L221.312 107.76H222.095C224.687 107.76 225.416 107.328 225.416 106.113C225.416 105.573 225.335 104.763 225.092 103.413L224.633 100.902L227.576 100.416L227.981 102.927C228.143 103.899 228.278 105.222 228.278 106.113C228.278 110.028 226.496 111.81 222.095 111.81H220.502ZM227.549 98.256C226.631 98.256 225.956 97.716 225.956 96.447C225.956 95.178 226.631 94.638 227.549 94.638H228.089C229.007 94.638 229.682 95.178 229.682 96.447C229.682 97.716 229.007 98.256 228.089 98.256H227.549ZM223.283 98.256C222.365 98.256 221.69 97.716 221.69 96.447C221.69 95.178 222.365 94.638 223.283 94.638H223.823C224.741 94.638 225.416 95.178 225.416 96.447C225.416 97.716 224.741 98.256 223.823 98.256H223.283Z" fill="white"/>
<path d="M93.4553 134V121.436H97.4513C100.673 121.436 102.527 123.542 102.527 127.718C102.527 131.894 100.673 134 97.4513 134H93.4553ZM94.5353 133.046H97.4693C99.9353 133.046 101.375 131.336 101.375 128.546V126.89C101.375 124.1 99.9353 122.39 97.4693 122.39H94.5353V133.046ZM106.362 134H105.336V124.784H106.362V126.44H106.434C106.794 125.576 107.604 124.784 109.188 124.784H109.8V125.792H108.99C107.46 125.792 106.362 126.512 106.362 127.7V134ZM115.01 134.216C112.544 134.216 110.978 132.416 110.978 129.392C110.978 126.368 112.544 124.568 114.992 124.568C117.35 124.568 118.88 126.404 118.88 129.104V129.59H112.058V130.04C112.058 131.966 113.174 133.316 115.064 133.316C116.378 133.316 117.35 132.668 117.854 131.462L118.61 131.966C118.034 133.316 116.756 134.216 115.01 134.216ZM114.992 125.432C113.21 125.432 112.058 126.764 112.058 128.708V128.798H117.764V128.654C117.764 126.71 116.648 125.432 114.992 125.432ZM128.87 134H127.826C127.034 134 126.71 133.55 126.656 132.866V132.542H126.566C126.152 133.568 125.216 134.216 123.776 134.216C121.85 134.216 120.734 133.208 120.734 131.498C120.734 129.86 121.814 128.834 124.478 128.834H126.602V127.754C126.602 126.242 125.81 125.468 124.244 125.468C123.02 125.468 122.228 126.008 121.724 126.962L121.076 126.422C121.58 125.36 122.606 124.568 124.28 124.568C126.422 124.568 127.628 125.702 127.628 127.646V133.1H128.87V134ZM123.92 133.334C125.414 133.334 126.602 132.56 126.602 131.318V129.608H124.442C122.606 129.608 121.814 130.238 121.814 131.264V131.696C121.814 132.758 122.66 133.334 123.92 133.334ZM132.008 134H130.982V124.784H132.008V126.242H132.062C132.44 125.342 133.16 124.568 134.672 124.568C135.986 124.568 137.066 125.18 137.516 126.512H137.57C137.912 125.432 138.83 124.568 140.468 124.568C142.43 124.568 143.528 125.828 143.528 128.078V134H142.502V128.258C142.502 126.404 141.728 125.486 140.18 125.486C138.902 125.486 137.768 126.17 137.768 127.538V134H136.742V128.258C136.742 126.386 135.95 125.486 134.438 125.486C133.178 125.486 132.008 126.152 132.008 127.52V134ZM149.36 134.216C147.758 134.216 146.642 133.586 145.814 132.452L146.57 131.858C147.326 132.848 148.208 133.334 149.432 133.334C150.836 133.334 151.646 132.704 151.646 131.588C151.646 130.616 151.088 130.058 149.756 129.86L149 129.734C147.326 129.482 146.174 128.816 146.174 127.16C146.174 125.432 147.524 124.568 149.306 124.568C150.836 124.568 151.772 125.162 152.456 125.99L151.772 126.62C151.286 126.044 150.53 125.45 149.252 125.45C147.938 125.45 147.164 126.062 147.164 127.106C147.164 128.168 147.83 128.582 149.144 128.798L149.882 128.906C151.754 129.194 152.636 130.004 152.636 131.48C152.636 133.19 151.394 134.216 149.36 134.216ZM167.664 134V128.096H160.77V134H159.69V121.436H160.77V127.142H167.664V121.436H168.744V134H167.664ZM177.963 134V132.542H177.891C177.549 133.406 176.793 134.216 175.209 134.216C173.247 134.216 172.077 132.956 172.077 130.706V124.784H173.103V130.508C173.103 132.398 173.949 133.298 175.479 133.298C176.757 133.298 177.963 132.632 177.963 131.246V124.784H178.989V134H177.963ZM182.345 134V120.68H183.371V126.26H183.425C183.875 125.234 184.829 124.568 186.233 124.568C188.591 124.568 190.031 126.35 190.031 129.392C190.031 132.434 188.591 134.216 186.233 134.216C184.829 134.216 183.929 133.55 183.425 132.524H183.371V134H182.345ZM185.999 133.298C187.835 133.298 188.933 132.02 188.933 130.04V128.744C188.933 126.764 187.835 125.486 185.999 125.486C184.577 125.486 183.371 126.332 183.371 127.538V131.192C183.371 132.488 184.577 133.298 185.999 133.298Z" fill="#C75DA3"/>
</svg>
