<svg width="37" height="47" viewBox="0 0 37 47" fill="none" xmlns="http://www.w3.org/2000/svg">
<path d="M23.9231 24.5832C23.6581 26.6182 23.1381 28.6232 22.3381 30.5232C19.8031 36.6132 15.4481 42.4182 9.18814 44.5232C8.10314 44.8882 2.84815 45.6432 2.42815 41.0182C2.16315 37.9982 3.96314 35.7282 5.04814 34.4932C10.1181 28.6532 16.6431 26.2332 23.9181 24.5832H23.9231Z" fill="white"/>
<path d="M29.0183 21.4432C22.1083 22.1732 15.0033 23.3932 9.16825 27.4232C6.49825 29.2632 3.83825 31.5882 2.14825 34.3882C0.458251 37.1882 -0.581742 41.2382 1.34326 44.1832C4.53826 49.0682 11.4683 46.4382 15.0783 43.7482C21.0533 39.2932 25.2033 31.7732 26.0433 24.3982C27.0383 15.6932 23.1883 5.56323 15.8683 0.458226C13.6633 -1.08177 11.5733 2.53323 13.7633 4.05823C18.7233 7.52323 21.7733 14.6282 22.0183 20.5182C22.2633 26.4082 19.7683 32.9332 15.6833 37.5432C13.7033 39.7782 8.87826 44.3132 5.43826 42.4082C3.26326 41.2032 5.06825 37.4732 6.04325 36.0282C7.46325 33.9232 9.62325 32.1032 11.7283 30.7182C16.8583 27.3382 23.0083 26.2482 29.0133 25.6182C31.6583 25.3382 31.6833 21.1632 29.0133 21.4482L29.0183 21.4432Z" fill="#C75DA3"/>
<path d="M34.6781 25.6132C37.3631 25.6132 37.3681 21.4432 34.6781 21.4432C31.9881 21.4432 31.9881 25.6132 34.6781 25.6132Z" fill="#C75DA3"/>
</svg>
